<svg width="1200" height="630" viewBox="0 0 1200 630" fill="none" xmlns="http://www.w3.org/2000/svg">
  <rect width="1200" height="630" fill="#F6F0E5"/>
  <rect width="1200" height="630" fill="url(#paint0_radial)" fill-opacity="0.7"/>
  <g opacity="0.18">
    <path d="M0 63H1200" stroke="#18211E"/>
    <path d="M0 126H1200" stroke="#18211E"/>
    <path d="M0 189H1200" stroke="#18211E"/>
    <path d="M0 252H1200" stroke="#18211E"/>
    <path d="M0 315H1200" stroke="#18211E"/>
    <path d="M0 378H1200" stroke="#18211E"/>
    <path d="M0 441H1200" stroke="#18211E"/>
    <path d="M0 504H1200" stroke="#18211E"/>
    <path d="M0 567H1200" stroke="#18211E"/>
    <path d="M100 0V630" stroke="#18211E"/>
    <path d="M200 0V630" stroke="#18211E"/>
    <path d="M300 0V630" stroke="#18211E"/>
    <path d="M400 0V630" stroke="#18211E"/>
    <path d="M500 0V630" stroke="#18211E"/>
    <path d="M600 0V630" stroke="#18211E"/>
    <path d="M700 0V630" stroke="#18211E"/>
    <path d="M800 0V630" stroke="#18211E"/>
    <path d="M900 0V630" stroke="#18211E"/>
    <path d="M1000 0V630" stroke="#18211E"/>
    <path d="M1100 0V630" stroke="#18211E"/>
  </g>
  <rect x="82" y="84" width="1036" height="462" rx="30" fill="white" fill-opacity="0.55" stroke="#18211E" stroke-opacity="0.09"/>
  <text x="120" y="186" fill="#0F5C54" font-family="Georgia, serif" font-size="26" letter-spacing="7.8">FREHSTACK</text>
  <text x="120" y="290" fill="#18211E" font-family="Georgia, serif" font-size="76" letter-spacing="-3.8">AI automation systems</text>
  <text x="120" y="370" fill="#18211E" font-family="Georgia, serif" font-size="76" letter-spacing="-3.8">for agencies that need</text>
  <text x="120" y="450" fill="#18211E" font-family="Georgia, serif" font-size="76" letter-spacing="-3.8">better operations.</text>
  <text x="120" y="510" fill="#5D675F" font-family="Arial, sans-serif" font-size="26">Operator-built systems for workflows, reporting, deliverables, and tracking.</text>
  <defs>
    <radialGradient id="paint0_radial" cx="0" cy="0" r="1" gradientUnits="userSpaceOnUse" gradientTransform="translate(145 56) rotate(28.3432) scale(519.352 449.775)">
      <stop stop-color="#0F5C54" stop-opacity="0.25"/>
      <stop offset="1" stop-color="#0F5C54" stop-opacity="0"/>
    </radialGradient>
  </defs>
</svg>
