<svg xmlns="http://www.w3.org/2000/svg" viewBox="0 0 400 120" width="400" height="120">
  <g transform="translate(8,20) scale(0.47)">
    <path fill="#555" d="M128 85.568c-26.234 0-47.505 21.27-47.505 47.505 0 26.233 21.271 47.505 47.505 47.505 26.233 0 47.505-21.271 47.505-47.505 0-26.234-21.272-47.505-47.505-47.505zm-83.2-38.063c-26.234 0-47.505 21.271-47.505 47.505 0 26.233 21.271 47.505 47.505 47.505 26.234 0 47.505-21.271 47.505-47.505 0-26.233-21.271-47.505-47.505-47.505zm166.401 0c-26.234 0-47.505 21.271-47.505 47.505 0 26.233 21.271 47.505 47.505 47.505 26.233 0 47.505-21.271 47.505-47.505 0-26.233-21.271-47.505-47.505-47.505z"/>
  </g>
  <text x="142" y="78" font-family="Arial, Helvetica, sans-serif" font-size="60" font-weight="400" fill="#555">asana</text>
</svg>
