<svg xmlns="http://www.w3.org/2000/svg" viewBox="0 0 560 120" width="560" height="120">
  <g transform="translate(10,8) scale(2.8)">
    <path d="M28.456 27.547c-1.792 1.56-4.024 3.5-8.086 3.5h-2.425c-2.937 0-5.607-1.045-7.517-2.945-1.865-1.856-2.896-4.393-2.896-7.148v-3.259c0-2.754 1.028-5.294 2.896-7.148 1.91-1.9 4.58-2.945 7.517-2.945h2.425c4.062 0 6.294 1.94 8.086 3.5 1.86 1.618 3.466 3.016 7.745 3.016.664 0 1.316-.052 1.95-.153a20.35 20.35 0 0 0-.9-1.814l-2.86-4.864A13.83 13.83 0 0 0 21.662 1.5h-5.724a13.83 13.83 0 0 0-12.73 7.212L.347 13.576a13.83 13.83 0 0 0 0 14.425l2.86 4.864a13.83 13.83 0 0 0 12.73 7.212h5.724a13.83 13.83 0 0 0 12.73-7.212l2.86-4.864c.345-.588.641-1.194.9-1.814a13.03 13.03 0 0 1-1.95-.153c-4.28 0-5.886 1.398-7.745 3.016z" fill="#006BFF"/>
    <path d="M20.37 11.602h-2.425c-4.469 0-7.404 3.132-7.404 7.142v3.259c0 4.01 2.935 7.142 7.404 7.142h2.425c6.511 0 5.998-6.514 15.83-6.514.942 0 1.873.085 2.779.25a13.72 13.72 0 0 0 0-5.012 16.26 16.26 0 0 0-2.779.25c-9.832 0-9.319-6.517-15.83-6.517z" fill="#006BFF"/>
  </g>
  <text x="130" y="80" font-family="'Inter', system-ui, sans-serif" font-size="58" font-weight="700" fill="#006BFF" letter-spacing="-2">Calendly</text>
</svg>
