<svg xmlns="http://www.w3.org/2000/svg" viewBox="0 0 680 120" width="680" height="120">
  <g transform="translate(8,10) scale(4.0)">
    <path d="M19.5 3.5h-3V2a.5.5 0 0 0-1 0v1.5h-7V2a.5.5 0 0 0-1 0v1.5h-3A2.5 2.5 0 0 0 2 6v14a2.5 2.5 0 0 0 2.5 2.5h15A2.5 2.5 0 0 0 22 20V6a2.5 2.5 0 0 0-2.5-2.5z" fill="#fff" stroke="#4285F4" stroke-width=".3"/>
    <rect x="2" y="8.5" width="20" height="14" rx="2" fill="#4285F4"/>
    <text x="12" y="19" text-anchor="middle" font-family="sans-serif" font-size="9" font-weight="700" fill="#fff">31</text>
    <rect x="4.5" y="3.5" width="0" height="0" fill="#1A73E8"/>
  </g>
  <text x="115" y="78" font-family="'Google Sans', 'Product Sans', 'Inter', system-ui, sans-serif" font-size="56" font-weight="400" fill="#5F6368" letter-spacing="-1">Google Calendar</text>
</svg>
