<svg xmlns="http://www.w3.org/2000/svg" viewBox="0 0 680 120" width="680" height="120">
  <g transform="translate(8,8) scale(3.8)">
    <circle cx="18" cy="5" r="3" fill="#5059C9"/>
    <path d="M24 10h-7a1 1 0 0 0-1 1v7a4 4 0 0 0 4 4h1a4 4 0 0 0 4-4v-7a1 1 0 0 0-1-1z" fill="#5059C9"/>
    <circle cx="12" cy="4.5" r="3.5" fill="#7B83EB"/>
    <path d="M17 9H7a1 1 0 0 0-1 1v8.5A5.5 5.5 0 0 0 11.5 24h1A5.5 5.5 0 0 0 18 18.5V10a1 1 0 0 0-1-1z" fill="#7B83EB"/>
    <rect x="2" y="8" width="12" height="12" rx="1.5" fill="#4B53BC"/>
    <text x="8" y="17.5" text-anchor="middle" font-family="sans-serif" font-size="8" font-weight="700" fill="#fff">T</text>
  </g>
  <text x="115" y="78" font-family="'Segoe UI', 'Inter', system-ui, sans-serif" font-size="52" font-weight="600" fill="#505AC9" letter-spacing="-1">Microsoft Teams</text>
</svg>
