<svg xmlns="http://www.w3.org/2000/svg" viewBox="0 0 520 120" width="520" height="120">
  <g transform="translate(10,8) scale(2.4)">
    <path d="M3.258 3.117c.42.33.573.314 1.353.271l7.391-.442c.154 0 .029-.154-.029-.171l-1.221-.887c-.228-.171-.531-.37-1.121-.327l-7.1.531c-.256.043-.3.157-.21.271zm.444 1.707v7.749c0 .414.214.573.7.544l8.1-.486c.486-.028.543-.314.543-.657V4.538c0-.328-.129-.5-.414-.471l-8.472.514c-.314.028-.457.185-.457.457zm7.986-.271c.057.257 0 .486-.257.514l-.4.071v5.714c-.343.186-.657.286-.886.286-.414 0-.514-.129-.829-.514L7.006 6.57v3.886l.829.185s0 .457-.643.457l-1.772.1c-.057-.114 0-.4.2-.443l.472-.128V5.47l-.657-.057c-.057-.257.086-.628.472-.657l1.9-.128 2.771 4.243V5.756l-.686-.086c-.057-.3.172-.514.443-.543z" fill="#000"/>
  </g>
  <text x="115" y="78" font-family="'Inter', 'Segoe UI', system-ui, -apple-system, sans-serif" font-size="62" font-weight="500" fill="#000" letter-spacing="-2">Notion</text>
</svg>
