<svg xmlns="http://www.w3.org/2000/svg" viewBox="0 0 620 120" width="620" height="120">
  <g transform="translate(10,10) scale(3.8)">
    <circle cx="13" cy="13" r="13" fill="#2CA01C"/>
    <path d="M5.1 13a5.1 5.1 0 0 0 5.1 5.1h.7v-1.9h-.7a3.2 3.2 0 1 1 0-6.4h.9v8.3a1.9 1.9 0 0 0 1.9 1.9v-12.1h-2.8A5.1 5.1 0 0 0 5.1 13zm10 5.1a5.1 5.1 0 0 0 5.1-5.1 5.1 5.1 0 0 0-5.1-5.1h-.7v1.9h.7a3.2 3.2 0 0 1 0 6.4h-.9V6.9A1.9 1.9 0 0 0 12.3 5v12.1z" fill="#fff"/>
  </g>
  <text x="120" y="78" font-family="'Inter', 'Segoe UI', system-ui, sans-serif" font-size="56" font-weight="600" fill="#2CA01C" letter-spacing="-1">QuickBooks</text>
</svg>
