<svg xmlns="http://www.w3.org/2000/svg" width="120" height="60"><path d="M53.782 9.765c2.39-2.476 5.72-4.04 9.392-4.04 4.895 0 9.136 2.732 11.412 6.773 1.964-.882 4.155-1.366 6.46-1.366 8.823 0 15.937 7.2 15.937 16.08S89.84 43.29 81.046 43.29c-1.08 0-2.134-.114-3.13-.313-1.992 3.557-5.806 5.977-10.19 5.977-1.82 0-3.557-.427-5.094-1.167-2.02 4.753-6.745 8.11-12.238 8.11-5.72 0-10.615-3.614-12.494-8.71a12.54 12.54 0 0 1-2.533.256c-6.83 0-12.352-5.578-12.352-12.494 0-4.6 2.476-8.652 6.176-10.815-.768-1.736-1.195-3.67-1.195-5.72C27.97 10.534 34.43 4.102 42.34 4.102a14.34 14.34 0 0 1 11.441 5.663" fill="#00a1e0"/><path d="M33.717 30.968l.313-.825c.057-.142.142-.085.2-.057l.256.17c.882.57 1.708.57 1.964.57.655 0 1.08-.342 1.08-.825v-.028c0-.512-.626-.71-1.366-.94l-.17-.057c-.996-.285-2.078-.71-2.078-1.964v-.028c0-1.195.968-2.05 2.362-2.05h.142c.825 0 1.594.228 2.163.598.057.028.114.085.085.17l-.313.825c-.057.142-.2.057-.2.057-.512-.285-1.28-.484-1.935-.484-.598 0-.968.313-.968.74v.028c0 .484.655.71 1.395.94l.142.028c.996.313 2.05.74 2.05 1.964v.028c0 1.31-.94 2.106-2.448 2.106-.74 0-1.45-.114-2.22-.512-.142-.085-.285-.142-.427-.256-.028-.057-.085-.085-.028-.2zm22.2 0l.313-.825c.057-.142.17-.085.2-.057l.256.17c.882.57 1.708.57 1.964.57.655 0 1.08-.342 1.08-.825v-.028c0-.512-.626-.71-1.366-.94l-.17-.057c-.996-.285-2.078-.71-2.078-1.964v-.028c0-1.195.968-2.05 2.362-2.05h.142c.825 0 1.594.228 2.163.598.057.028.114.085.085.17l-.313.825c-.057.142-.2.057-.2.057-.512-.285-1.28-.484-1.935-.484-.598 0-.968.313-.968.74v.028c0 .484.655.71 1.395.94l.142.028c.996.313 2.05.74 2.05 1.964v.028c0 1.31-.94 2.106-2.448 2.106-.74 0-1.45-.114-2.22-.512-.142-.085-.285-.142-.427-.256 0-.057-.057-.085-.028-.2zm16.45-3.9c.114.427.2.882.2 1.366s-.057.94-.2 1.366c-.114.427-.313.797-.57 1.1a2.75 2.75 0 0 1-.968.74c-.398.17-.854.256-1.366.256s-.968-.085-1.366-.256-.71-.427-.968-.74-.455-.683-.57-1.1-.2-.882-.2-1.366.057-.94.2-1.366c.114-.427.313-.797.57-1.1a2.75 2.75 0 0 1 .968-.74 3.44 3.44 0 0 1 1.366-.285c.512 0 .968.085 1.366.285.398.17.71.427.968.74s.455.683.57 1.1zm-1.28 1.338c0-.74-.142-1.31-.398-1.708s-.683-.598-1.224-.598c-.57 0-.968.2-1.224.598s-.398.968-.398 1.708.142 1.31.398 1.736c.256.398.655.598 1.224.598s.968-.2 1.224-.598c.285-.398.398-.996.398-1.736zm11.697 2.134l-.001-5.6c0-3.152-1.988-5.278-5.16-5.278-1.513 0-2.752.875-3.2 1.627v-.01l-.003.01c-.001-.76-.618-1.204-1.38-1.204h-.5a.35.35 0 0 0-.347.347l.002 10.806c.01.182.16.328.345.328h1.523c.023 0 .046-.003.068-.007.01-.002.02-.006.03-.01l.034-.01c.014-.006.026-.013.04-.02l.02-.01c.015-.01.03-.022.043-.034.022-.02.036-.036.048-.053.038-.053.06-.116.065-.184h.002v-6.383c0-1.693 1.372-3.065 3.065-3.065s3.065 1.372 3.065 3.065l.004 6.383c.01.182.16.328.345.328h1.523c.024 0 .046-.003.068-.007.01-.002.017-.006.026-.008l.037-.012c.012-.005.024-.012.035-.02l.022-.01a.4.4 0 0 0 .04-.032c.025-.022.038-.037.05-.053.04-.055.063-.118.067-.186l.002-.001v-.705zm11.882-.37c0 .36.62 1.377 1.378 1.377h.492a.35.35 0 0 0 .347-.347l-.001-10.805c-.01-.182-.16-.328-.345-.328h-1.523c-.185 0-.335.146-.345.328h-.001v.878c-.934-1.15-2.406-1.627-3.882-1.627-3.354 0-6.074 2.72-6.074 6.074s2.72 6.074 6.074 6.074c1.476 0 3.084-.573 3.88-1.627zm-3.875-.5c-2.134 0-3.863-1.768-3.863-3.948s1.73-3.948 3.863-3.948 3.862 1.768 3.862 3.948-1.73 3.948-3.862 3.948z" fill="#fff"/></svg>
